<?xml version="1.0" standalone="no"?>
<!DOCTYPE svg PUBLIC "-//W3C//DTD SVG 20010904//EN"
 "http://www.w3.org/TR/2001/REC-SVG-20010904/DTD/svg10.dtd">
<svg version="1.0" xmlns="http://www.w3.org/2000/svg"
 width="1000.000000pt" height="1000.000000pt" viewBox="0 0 1000.000000 1000.000000"
 preserveAspectRatio="xMidYMid meet">
<metadata>
Created by potrace 1.14, written by Peter Selinger 2001-2017
</metadata>
<g transform="translate(0.000000,1000.000000) scale(0.100000,-0.100000)"
fill="#000000" stroke="none">
<path d="M4982 9958 c-7 -7 -12 -17 -12 -23 0 -7 -12 -49 -26 -95 l-27 -84
-19 27 c-26 36 -61 35 -87 -1 -10 -15 -36 -63 -57 -107 l-37 -78 -16 39 c-25
61 -56 106 -103 149 -49 43 -153 96 -174 88 -35 -13 -28 -144 11 -227 47 -100
184 -216 254 -216 9 0 24 -13 34 -29 16 -28 16 -31 0 -60 -10 -17 -20 -31 -23
-31 -3 0 -15 16 -28 35 -32 50 -95 92 -157 106 -59 13 -85 4 -85 -31 0 -26 35
-100 71 -150 38 -53 54 -67 92 -81 29 -12 34 -28 15 -62 -29 -53 -37 -125 -22
-194 16 -79 3 -108 -15 -31 -12 54 -77 198 -94 209 -19 13 -49 -5 -67 -42 -33
-64 -59 -136 -64 -176 -2 -21 -5 -39 -5 -40 -1 -1 -34 15 -73 36 -72 36 -73
37 -76 79 l-3 42 36 0 c67 0 182 134 200 232 10 55 -19 136 -52 145 -22 5 -31
0 -57 -33 -17 -21 -58 -66 -91 -100 l-60 -61 -21 26 -22 27 29 32 c37 42 63
131 56 193 -6 52 -19 76 -84 157 -24 30 -51 67 -60 83 -37 62 -84 46 -109 -38
-9 -32 -22 -80 -28 -107 l-11 -49 -30 25 c-67 55 -174 92 -307 105 -48 4 -58
2 -66 -14 -14 -26 -7 -35 63 -72 83 -43 112 -73 146 -148 34 -76 35 -81 12
-61 -10 8 -44 29 -75 47 -92 52 -123 24 -99 -88 21 -95 41 -149 77 -201 19
-28 30 -50 24 -50 -6 0 -41 30 -78 68 -92 93 -154 124 -246 126 -94 1 -126 -6
-213 -49 -54 -27 -74 -42 -79 -61 -7 -29 13 -56 54 -74 15 -6 44 -33 64 -60
119 -153 325 -183 486 -70 23 16 53 30 65 30 34 0 201 -48 268 -77 l61 -26
-49 -23 c-58 -28 -150 -115 -159 -151 -9 -33 17 -54 61 -51 16 1 49 -2 73 -6
41 -8 43 -10 37 -35 -14 -55 -16 -68 -20 -131 -5 -75 9 -136 35 -165 19 -20
19 -20 -62 -21 -66 -1 -84 -5 -95 -20 -15 -21 -15 -21 -36 36 -10 25 -32 72
-51 105 l-33 60 35 52 c63 96 58 167 -23 280 -76 105 -80 109 -108 96 -16 -8
-27 -23 -31 -45 -3 -18 -8 -44 -11 -58 -3 -14 -8 -59 -12 -100 -3 -41 -7 -76
-8 -78 -8 -9 -77 45 -95 73 -49 79 -133 130 -244 147 -65 10 -75 14 -81 35
-12 48 -113 21 -184 -49 -42 -40 -89 -142 -93 -197 -3 -43 -9 -49 -26 -28 -7
8 -4 31 10 72 18 58 25 88 32 150 5 42 -18 144 -44 196 -25 49 -221 254 -250
262 -51 13 -67 -37 -64 -205 2 -162 29 -262 88 -327 l21 -23 -30 6 c-17 4 -52
7 -77 8 l-47 1 2 71 c1 90 -6 123 -44 197 -20 41 -38 63 -57 70 -24 9 -30 7
-55 -23 -50 -59 -117 -214 -117 -269 0 -28 -1 -28 -59 30 -67 67 -156 114
-248 132 -50 9 -66 9 -78 -1 -22 -18 -19 -41 17 -117 40 -85 80 -146 125 -186
l34 -32 -44 0 c-106 -1 -102 -61 12 -194 l46 -54 -62 32 c-66 34 -89 36 -106
9 -8 -12 -2 -35 25 -95 20 -43 35 -79 33 -81 -2 -2 -20 12 -41 32 -67 63 -282
152 -345 143 -27 -4 -48 -27 -44 -47 7 -34 119 -221 171 -284 82 -99 184 -157
300 -171 51 -5 50 -4 121 -93 38 -47 124 -99 176 -107 28 -5 40 -2 57 15 14
14 19 27 14 38 -12 30 -34 115 -30 120 3 2 12 -9 22 -25 10 -15 33 -46 50 -68
31 -38 33 -45 36 -137 3 -83 1 -95 -12 -88 -8 5 -62 43 -120 84 -166 119 -231
152 -393 202 -27 8 -77 16 -113 17 l-64 2 0 36 c0 108 -71 194 -216 265 -104
51 -161 65 -175 43 -36 -57 45 -228 144 -308 l38 -29 -58 -17 c-88 -26 -122
-47 -220 -140 -30 -27 -55 -60 -58 -73 -9 -47 69 -86 170 -84 64 1 195 44 256
83 51 32 139 121 139 140 0 29 174 -30 290 -98 42 -24 100 -65 129 -91 l53
-47 -36 -2 c-19 -2 -57 -12 -84 -22 l-50 -20 -17 44 c-31 81 -120 148 -216
161 -68 9 -75 -7 -44 -91 14 -37 33 -81 41 -96 15 -29 14 -29 -10 -25 -14 3
-31 8 -37 12 -7 4 -18 -1 -25 -11 -12 -16 -18 -17 -58 -5 -61 17 -177 8 -248
-19 -66 -25 -121 -72 -116 -98 3 -18 57 -48 161 -89 79 -31 170 -28 250 9 66
30 116 68 135 103 10 18 19 23 42 20 41 -5 144 18 205 45 51 23 139 29 169 12
19 -11 109 -123 99 -123 -4 0 -33 7 -63 15 -79 22 -200 17 -311 -12 -141 -36
-158 -62 -87 -132 105 -102 270 -146 392 -104 21 7 40 13 43 13 2 0 -23 -26
-55 -57 -67 -66 -94 -111 -96 -162 l-1 -36 -57 58 c-31 31 -63 57 -71 57 -24
0 -47 -28 -48 -58 -8 -160 -3 -197 35 -274 l24 -48 -27 7 c-14 4 -36 7 -48 8
-27 0 -29 8 -7 26 19 16 17 91 -4 134 -47 97 -162 178 -287 200 -133 24 -155
24 -168 3 -9 -13 2 -36 58 -119 38 -57 89 -123 114 -148 48 -46 128 -89 174
-93 36 -3 34 -10 -9 -33 -56 -30 -76 -81 -44 -110 49 -45 221 -56 291 -19 l29
15 35 -76 c19 -41 35 -77 35 -80 0 -2 -19 3 -42 11 -122 43 -265 69 -361 67
-41 -2 -45 0 -33 12 12 12 12 25 1 84 -8 38 -21 83 -29 100 -14 26 -123 117
-196 162 -29 18 -140 61 -140 54 0 -2 -11 0 -24 5 -13 5 -65 12 -114 15 -86 6
-91 6 -102 -15 -10 -19 -3 -35 67 -138 43 -64 89 -129 102 -144 50 -58 147
-109 258 -136 15 -4 57 -6 92 -6 62 2 63 1 33 -12 -60 -25 -32 -52 51 -49 31
2 57 0 57 -4 0 -4 -16 -15 -35 -25 -79 -43 -167 -163 -195 -264 -22 -85 9
-107 95 -67 31 15 64 28 73 30 9 2 17 4 17 5 0 1 8 3 17 5 9 2 42 14 71 28 90
41 145 113 155 204 2 24 5 43 6 43 38 -4 276 -113 276 -127 0 -5 -27 -9 -61
-10 -126 -5 -248 -99 -205 -158 17 -23 145 -53 228 -53 84 0 134 17 197 64 24
19 48 34 52 34 4 0 29 -9 55 -20 l47 -21 -24 -25 c-13 -15 -44 -40 -69 -58
-41 -28 -52 -31 -120 -31 -41 1 -97 5 -125 9 -27 5 -97 9 -155 9 -84 -1 -109
3 -125 16 -49 42 -120 47 -210 16 -128 -44 -139 -100 -27 -139 46 -17 44 -16
71 -16 15 0 11 -8 -20 -42 -60 -66 -84 -122 -84 -198 0 -51 6 -75 25 -109 35
-63 53 -71 85 -41 14 13 25 28 25 33 0 5 9 21 19 36 33 46 88 164 95 202 6 35
0 57 -29 108 -12 22 -12 26 6 39 11 7 32 17 48 22 28 8 29 8 15 -19 -33 -64
-7 -140 79 -233 57 -61 70 -66 101 -43 15 12 19 30 22 110 3 86 1 100 -21 139
l-24 43 41 -4 c23 -2 93 -17 157 -34 64 -16 136 -29 161 -29 92 0 162 33 215
101 24 31 35 38 55 35 14 -2 63 -12 110 -20 146 -28 233 -24 390 20 80 23 289
127 339 171 40 34 50 37 105 38 38 1 102 -9 171 -27 61 -16 118 -30 128 -31 9
-1 17 -2 17 -3 0 -1 -17 -19 -37 -39 l-37 -37 -21 25 c-21 26 -68 59 -94 66
-9 2 -55 4 -102 5 -72 1 -90 -2 -108 -18 -30 -27 -27 -40 21 -86 41 -39 126
-75 171 -72 24 1 21 -9 -12 -35 l-27 -21 -60 28 c-62 30 -110 39 -234 45 -88
4 -163 -13 -220 -51 -69 -46 -65 -82 15 -119 114 -55 228 -73 310 -51 22 6 69
29 104 51 89 55 101 52 41 -11 -56 -59 -88 -123 -114 -225 -28 -114 -14 -168
40 -155 90 23 251 176 279 265 25 81 -16 201 -69 201 -26 0 -15 10 59 50 91
50 136 80 176 117 l36 34 49 -17 c95 -32 212 -102 280 -169 6 -5 37 -32 69
-60 90 -77 149 -129 157 -140 4 -5 4 -21 2 -35 -8 -38 -12 -64 -14 -75 0 -5
-9 0 -18 11 -38 45 -80 58 -197 58 -105 1 -114 -1 -176 -31 -38 -19 -84 -53
-111 -81 -54 -57 -110 -141 -102 -153 3 -5 1 -9 -4 -9 -10 0 -11 -6 -13 -108
-1 -63 4 -87 24 -132 41 -91 123 -179 234 -253 34 -22 61 -42 60 -43 -1 -1
-27 3 -57 10 -111 25 -269 0 -315 -50 -39 -42 -20 -72 65 -103 44 -16 80 -40
136 -93 78 -71 135 -105 195 -112 19 -2 33 -8 32 -12 -1 -8 -48 -136 -72 -196
l-10 -27 -38 19 c-94 45 -223 45 -364 0 -107 -35 -118 -80 -33 -139 28 -20 85
-67 127 -105 42 -38 88 -77 102 -86 l27 -18 -33 -35 c-61 -64 -158 -109 -279
-130 -150 -27 -339 -87 -407 -130 -49 -31 -117 -45 -203 -40 -269 13 -278 12
-406 -52 -101 -51 -196 -133 -220 -190 -23 -56 -16 -61 24 -19 50 53 110 93
212 142 100 48 159 60 261 54 41 -2 102 -4 136 -5 65 -2 65 -2 28 -52 -35 -47
-75 -132 -75 -158 0 -28 38 -50 63 -36 8 5 26 30 38 54 29 57 76 105 131 132
51 26 169 51 270 58 70 5 171 17 251 30 22 4 57 13 79 21 30 10 38 11 31 1
-200 -261 -326 -391 -511 -530 -81 -61 -98 -70 -132 -69 -48 2 -112 23 -215
72 -137 64 -227 74 -317 36 -76 -32 -87 -107 -14 -91 90 19 105 17 233 -24 70
-23 147 -52 170 -64 l43 -22 -110 -53 c-157 -76 -273 -105 -430 -107 -141 -2
-166 -7 -173 -36 -6 -21 23 -58 46 -60 6 0 21 -2 32 -5 40 -8 98 -15 172 -19
41 -2 77 -6 79 -8 8 -7 -57 -52 -151 -105 -216 -122 -265 -165 -265 -236 0
-33 17 -34 30 -2 12 32 43 53 206 136 138 71 172 94 272 180 36 30 69 48 105
57 109 28 377 179 555 313 48 36 52 33 18 -13 -61 -83 -141 -263 -151 -343 -6
-49 -27 -72 -140 -152 -196 -140 -242 -192 -281 -319 -28 -89 -29 -167 -3
-184 19 -11 41 26 86 141 25 65 50 109 77 139 50 54 235 193 247 185 5 -3 9
-29 9 -58 0 -62 34 -205 54 -225 19 -18 63 -7 71 19 3 10 2 35 -4 54 -14 52
-6 280 13 361 42 180 122 309 251 404 50 37 300 191 310 191 3 0 24 12 46 26
42 26 42 22 3 -31 -43 -60 -96 -187 -118 -287 -4 -18 -24 -39 -60 -63 -117
-77 -206 -215 -231 -355 -3 -18 -8 -37 -11 -41 -2 -4 -5 -37 -5 -74 l-1 -66
-70 -49 c-120 -84 -202 -169 -247 -255 -11 -22 -34 -85 -50 -140 -46 -155 -81
-222 -160 -309 -39 -43 -71 -84 -71 -92 0 -27 35 -34 69 -13 41 25 112 98 131
135 8 16 39 66 68 112 29 45 61 105 72 132 27 67 76 161 97 185 20 23 180 155
187 155 3 0 17 -38 32 -85 31 -95 30 -104 -33 -170 -71 -76 -121 -161 -128
-220 -9 -69 0 -144 20 -164 16 -16 14 -22 41 113 14 74 52 152 95 196 8 8 24
28 36 43 l22 29 7 -29 c3 -15 8 -36 10 -45 3 -9 7 -25 9 -35 3 -10 11 -45 20
-78 8 -33 18 -94 21 -136 8 -94 -4 -116 -79 -152 -29 -14 -100 -48 -158 -76
-84 -40 -123 -66 -182 -121 -83 -77 -156 -169 -192 -240 -28 -56 -47 -120 -34
-120 5 0 30 28 57 61 82 107 152 183 237 256 48 41 212 134 338 191 31 15 -25
-182 -93 -328 -58 -122 -90 -214 -78 -225 21 -22 91 65 171 212 64 119 111
246 132 353 14 74 14 262 1 323 -4 16 -3 27 1 25 46 -22 61 -34 80 -61 20 -30
24 -48 38 -157 9 -66 41 -125 89 -165 52 -43 107 -67 126 -55 16 10 4 31 -60
100 -53 57 -66 88 -75 178 -11 111 -52 178 -133 217 -65 32 -100 72 -112 129
-26 127 -30 163 -30 301 -1 154 19 225 97 349 l25 39 24 -43 c43 -75 122 -166
244 -281 120 -112 120 -112 102 -133 -38 -42 -106 -151 -124 -198 -22 -59 -28
-136 -15 -197 11 -53 64 -170 78 -172 27 -5 32 -2 35 16 2 10 -6 63 -16 115
-29 147 -22 187 62 327 l49 83 23 -27 c22 -25 23 -29 9 -62 -33 -78 -40 -163
-18 -198 l18 -27 29 89 c15 49 28 95 28 103 0 23 22 0 79 -82 l51 -74 -25 -46
c-13 -25 -48 -80 -78 -123 -66 -94 -90 -141 -111 -213 -34 -122 -23 -270 29
-376 33 -67 47 -79 75 -64 23 12 23 12 5 100 -3 14 -6 63 -6 110 -2 97 15 151
66 215 46 60 101 146 117 185 l14 34 17 -45 c33 -88 46 -180 43 -299 -6 -188
-44 -277 -173 -402 -83 -81 -203 -185 -268 -233 -58 -43 -65 -51 -65 -78 0
-28 17 -38 52 -30 49 12 288 186 338 247 15 17 16 13 14 -47 -2 -65 2 -87 50
-222 29 -82 27 -106 -16 -195 -37 -75 -39 -82 -27 -101 7 -12 15 -11 46 6 29
15 46 36 71 85 46 91 45 146 -3 271 -41 104 -46 137 -33 212 14 75 75 265 105
323 l26 52 42 -57 c51 -68 91 -106 169 -160 l59 -41 2 -72 c2 -90 10 -129 42
-192 30 -59 64 -94 168 -171 115 -84 177 -152 220 -240 38 -76 56 -90 75 -56
44 84 -64 246 -251 378 -44 30 -92 70 -107 89 -45 55 -88 224 -57 224 8 0 16
-4 19 -9 3 -5 18 -11 33 -14 16 -3 37 -7 48 -10 11 -3 65 -16 120 -27 129 -28
186 -50 260 -101 81 -55 121 -107 195 -256 44 -87 70 -128 87 -136 31 -14 43
2 36 47 -7 51 -22 92 -83 220 -66 140 -110 192 -221 257 -81 48 -148 75 -251
100 -188 45 -291 99 -386 203 -99 109 -152 229 -157 356 -4 78 -7 113 -22 210
-9 61 -73 242 -109 308 -36 66 -36 66 -18 222 13 111 57 269 96 343 9 17 11
16 29 -7 59 -75 109 -245 102 -346 -2 -30 -6 -86 -8 -125 -2 -38 -7 -117 -11
-176 -16 -262 53 -466 211 -624 68 -68 135 -110 260 -164 66 -28 94 -47 118
-77 73 -92 212 -194 265 -194 57 0 32 46 -75 133 l-76 62 67 6 c36 3 69 8 72
12 19 19 -49 56 -151 82 -38 10 -71 19 -72 20 -1 0 -9 28 -18 60 -14 55 -19
179 -10 265 2 19 4 65 4 102 l1 68 28 -12 c56 -25 163 -101 198 -141 56 -65
80 -114 109 -216 31 -110 59 -171 80 -171 8 0 14 3 13 8 -1 4 4 25 12 47 19
54 18 254 -2 316 -18 53 -72 138 -121 189 -65 67 -103 96 -225 170 -197 119
-238 159 -274 268 -18 53 -26 177 -13 190 3 3 31 -6 63 -21 59 -27 83 -35 129
-43 16 -3 55 -11 88 -19 91 -20 201 -35 290 -39 l80 -4 36 -134 c43 -162 66
-212 130 -282 99 -108 320 -235 344 -196 7 12 -79 97 -155 153 -82 61 -153
136 -177 187 -11 25 -32 88 -47 140 -15 52 -30 103 -33 114 -3 10 -1 16 4 13
5 -3 51 -7 103 -8 51 -1 112 -6 134 -11 23 -5 51 -12 64 -14 111 -21 339 -161
453 -277 33 -34 96 -119 140 -189 73 -115 134 -188 159 -188 23 0 6 55 -50
165 -68 133 -172 285 -263 382 l-62 66 45 -8 c60 -10 191 -55 263 -90 31 -16
60 -26 63 -23 3 4 -1 20 -10 36 -47 90 -236 171 -399 172 -57 0 -74 4 -101 25
-18 14 -36 25 -40 25 -3 0 -23 10 -44 23 -56 35 -167 77 -257 96 -78 18 -129
21 -350 26 -60 1 -136 7 -168 14 l-57 12 92 46 c238 117 402 153 558 123 30
-6 70 -13 88 -16 45 -7 124 -36 204 -73 36 -17 70 -31 75 -31 4 0 39 -21 77
-45 77 -50 116 -58 116 -24 0 23 -93 119 -115 119 -3 0 -28 16 -56 35 l-51 35
53 1 c30 1 66 1 80 1 79 1 275 -30 336 -53 37 -14 38 -5 4 24 -74 62 -241 97
-480 102 -131 2 -184 7 -251 25 -47 12 -94 24 -105 26 -11 2 -44 9 -73 15
-166 34 -260 16 -505 -98 -190 -87 -315 -117 -350 -84 -4 4 6 48 22 97 36 106
43 183 25 277 -30 159 -128 293 -274 375 -59 33 -65 41 -69 72 -1 19 -9 50
-17 69 -8 18 -14 35 -14 37 0 6 73 17 110 17 99 -1 269 -84 368 -180 30 -29
41 -79 35 -164 -9 -135 -7 -212 6 -252 28 -85 125 -197 171 -197 21 0 5 49
-44 133 -51 91 -61 141 -50 254 4 43 7 86 5 96 -1 9 1 17 4 17 3 0 61 -44 128
-98 100 -81 195 -142 221 -142 3 0 31 -15 63 -34 32 -19 87 -44 123 -56 130
-44 390 -27 390 26 0 19 -27 25 -135 29 -137 6 -177 12 -238 36 -53 21 -171
88 -165 94 17 17 217 24 351 13 37 -3 67 -4 67 -1 0 18 -27 46 -58 62 -77 39
-175 46 -328 21 -44 -7 -92 -10 -106 -7 -15 4 -57 42 -99 89 -40 46 -114 124
-163 174 l-91 92 200 -3 c217 -3 276 -12 413 -65 105 -40 152 -72 249 -169 44
-44 86 -81 92 -81 32 0 -23 127 -85 195 -134 148 -174 181 -279 235 -96 50
-88 55 105 55 133 0 150 -2 211 -27 36 -14 88 -40 115 -56 27 -17 50 -27 52
-22 6 17 -36 76 -73 105 -134 102 -317 117 -595 49 -58 -14 -118 -25 -135 -26
-38 0 -243 72 -361 127 -101 47 -165 98 -197 159 -29 55 -38 84 -23 82 6 -2
32 -6 59 -11 26 -4 47 -10 48 -14 2 -15 7 -40 13 -59 11 -34 90 -98 149 -120
56 -21 85 -26 205 -37 35 -3 77 -12 94 -21 63 -33 97 3 84 89 -21 132 -120
233 -247 252 -86 13 -187 1 -250 -31 -15 -7 -28 -12 -30 -10 -4 4 -54 13 -119
22 -19 2 -37 9 -41 16 -12 18 -21 116 -15 156 3 20 8 64 11 96 8 76 11 81 42
56 45 -36 140 -51 213 -35 19 4 73 27 120 50 101 51 134 59 186 47 110 -25
114 63 8 157 -61 54 -139 82 -229 83 -135 1 -218 -36 -278 -125 l-25 -37 -11
32 c-10 32 -17 80 -25 180 -5 57 -5 57 139 133 147 78 153 82 206 135 64 66
93 134 103 245 4 38 -21 123 -49 171 -69 119 -202 188 -342 177 -64 -4 -108
-19 -165 -55 -56 -35 -86 -79 -94 -139 -11 -85 64 -153 166 -152 67 1 155 19
187 39 35 22 43 17 43 -30 0 -58 -29 -92 -134 -161 -85 -55 -126 -73 -126 -56
0 16 -69 130 -125 206 -111 150 -194 327 -215 459 -12 77 11 136 76 194 63 56
141 105 226 140 57 24 75 27 188 26 107 0 134 -3 184 -23 l59 -23 -31 -24
c-57 -45 -79 -153 -56 -274 17 -88 22 -100 49 -100 36 0 139 133 155 199 7 29
10 61 7 71 -9 34 9 22 53 -35 l42 -55 -20 -40 c-38 -77 -15 -153 72 -242 51
-52 78 -96 91 -151 8 -32 47 -46 71 -26 50 42 84 225 55 300 -21 58 -89 112
-154 125 -40 7 -65 64 -28 64 10 0 45 13 77 30 60 30 104 39 104 20 0 -6 11
-22 25 -36 20 -20 28 -23 45 -14 27 14 25 50 -4 108 -48 94 -139 153 -224 145
-26 -2 -69 -10 -97 -17 -77 -21 -143 -18 -190 9 -54 31 -152 63 -203 66 -23 2
-42 6 -42 9 0 7 178 46 255 55 78 10 231 5 290 -9 85 -20 196 -71 320 -149 44
-27 94 -57 110 -67 59 -33 212 -75 271 -73 21 0 21 -1 7 -36 -20 -46 -22 -156
-4 -201 8 -19 35 -69 61 -110 26 -41 54 -87 64 -102 18 -30 47 -36 64 -15 6 7
9 39 7 74 -4 53 0 70 30 133 21 42 35 87 35 109 0 44 -37 106 -83 139 -17 12
-26 22 -19 22 17 0 96 -44 153 -86 65 -47 181 -84 267 -84 l70 0 -8 -35 c-17
-75 -2 -123 69 -228 28 -40 49 -82 49 -93 -1 -10 2 -32 6 -47 5 -23 11 -28 34
-25 22 2 34 15 63 71 20 38 36 74 37 80 10 120 -4 200 -45 255 -31 41 -11 43
43 4 22 -16 45 -27 52 -24 23 7 12 46 -24 83 l-35 36 25 17 c40 26 72 84 86
159 12 61 12 69 -3 84 -15 15 -21 14 -89 -12 -89 -35 -181 -119 -192 -175 -12
-64 -25 -71 -118 -72 -97 0 -160 20 -250 80 l-58 38 58 24 c50 20 351 171 377
189 15 11 136 60 173 70 32 10 32 9 43 -33 19 -78 121 -179 163 -163 43 17 45
113 2 177 l-25 38 32 -4 c45 -6 79 -13 84 -17 2 -2 -1 -17 -8 -33 -31 -82 7
-206 82 -265 24 -19 69 -59 101 -90 31 -31 63 -59 70 -62 41 -14 77 64 81 176
l2 67 35 0 c35 0 76 18 165 74 38 23 56 28 103 27 31 0 67 -3 79 -5 21 -5 53
16 53 33 0 21 -49 65 -130 120 -102 68 -165 86 -267 77 l-64 -6 21 30 c29 41
80 155 80 179 0 35 -31 42 -87 21 -28 -10 -70 -21 -93 -24 -66 -8 -132 -33
-172 -66 -39 -33 -88 -120 -88 -158 0 -18 -4 -23 -16 -18 -9 3 -26 6 -38 6
-21 0 -22 3 -18 55 4 52 3 56 -31 90 -32 32 -33 35 -13 36 144 4 254 53 301
133 38 65 64 147 54 174 -10 28 -34 28 -154 3 -102 -22 -132 -33 -191 -73
l-42 -27 -5 29 c-4 16 -27 61 -53 100 -51 76 -82 91 -105 48 -7 -13 -32 -48
-56 -79 -51 -65 -82 -141 -76 -184 5 -46 32 -111 52 -129 18 -17 18 -18 -11
-49 -45 -49 -94 -127 -111 -177 -18 -53 -42 -70 -26 -18 6 18 12 70 14 116 3
72 1 86 -16 103 -27 27 -45 15 -108 -69 -77 -105 -109 -188 -91 -237 8 -21 5
-24 -33 -38 -23 -8 -52 -18 -64 -21 -13 -3 -31 -8 -42 -11 -15 -5 -20 1 -25
30 -5 22 -23 52 -50 80 -23 25 -36 45 -29 45 31 0 139 65 183 110 25 26 56 51
68 54 65 21 136 143 135 236 0 51 -28 146 -50 172 -20 22 -52 15 -81 -19 -13
-16 -37 -43 -53 -62 -35 -42 -74 -122 -83 -175 -6 -31 -9 -35 -19 -23 -27 33
-77 21 -77 -18 0 -7 -16 -32 -35 -55 -40 -48 -45 -85 -16 -122 l20 -25 -102
-17 c-84 -13 -122 -26 -216 -72 -126 -62 -156 -67 -244 -38 -102 33 -102 33
34 74 351 105 467 193 674 507 64 96 135 208 158 249 23 40 45 74 49 74 4 0 9
-8 13 -19 7 -22 57 -68 105 -98 62 -38 131 -55 230 -58 70 -2 107 -8 140 -23
38 -18 48 -19 65 -8 62 41 11 178 -100 266 -78 62 -238 93 -345 66 l-35 -8 24
25 c56 61 139 75 261 45 42 -11 127 -21 195 -24 l120 -4 2 -31 c7 -82 71 -164
172 -221 76 -42 87 -53 123 -119 37 -66 65 -85 96 -63 28 19 45 76 44 150 -1
131 -58 236 -163 301 -48 29 -70 37 -124 43 -5 0 2 7 17 16 49 26 76 104 41
120 -39 16 -87 -17 -98 -67 -4 -16 -7 -29 -8 -29 -1 0 -24 -7 -51 -15 l-48
-15 16 23 c26 36 38 69 39 113 2 61 -16 77 -80 72 -70 -6 -118 -44 -158 -126
-34 -69 -37 -69 -116 -17 -28 18 -67 36 -86 40 l-36 6 49 36 c59 42 151 86
217 102 159 39 375 28 382 -19 2 -8 6 -33 9 -55 11 -70 63 -162 110 -194 48
-33 124 -58 206 -66 30 -3 70 -10 89 -15 39 -11 71 2 71 28 0 22 -46 150 -62
171 -52 69 -123 121 -167 121 -28 0 -35 17 -12 29 44 24 77 104 87 209 3 34
14 82 24 104 20 44 15 70 -16 82 -19 7 -152 -36 -216 -71 -89 -49 -145 -122
-153 -201 -2 -29 -7 -36 -22 -34 -10 1 -47 6 -82 10 l-65 7 58 29 c121 61 165
170 126 315 -5 19 -7 37 -5 41 2 4 0 23 -6 43 -13 47 -45 50 -77 8 -12 -16
-46 -43 -76 -60 -63 -36 -100 -76 -144 -153 -42 -72 -50 -127 -27 -178 10 -22
23 -40 29 -40 25 0 -13 -20 -49 -26 -22 -3 -43 -8 -47 -11 -13 -7 -9 16 9 50
39 74 46 171 21 272 -5 22 -12 49 -14 60 -8 30 82 118 138 134 54 16 68 28 68
55 0 45 -143 93 -241 81 -111 -14 -179 -45 -255 -117 l-52 -49 8 35 c4 20 6
36 4 36 -8 0 30 77 49 98 20 21 29 23 117 21 147 -4 185 21 262 175 57 113 79
176 67 198 -10 19 -54 25 -64 8 -13 -20 -82 -48 -135 -54 -90 -11 -113 -17
-157 -41 l-42 -23 -17 51 c-9 29 -30 75 -45 102 -64 114 -105 125 -129 35 -6
-25 -23 -78 -38 -117 -25 -69 -28 -73 -57 -73 -16 0 -40 -3 -52 -6 l-22 -6 25
48 c48 95 55 140 51 311 -2 88 -7 164 -11 171 -4 7 -20 12 -36 12 -23 0 -33
-8 -53 -42 -14 -24 -34 -52 -44 -63 -10 -11 -45 -49 -77 -85 -74 -80 -118
-149 -141 -219 l-18 -55 -21 25 c-12 13 -33 32 -47 41 -47 30 -147 41 -174 18
-8 -7 -24 -5 -48 5 -53 22 -138 29 -181 15 -46 -15 -79 -55 -66 -80 14 -26 13
-27 -18 -38 l-28 -10 0 58 c0 44 -7 73 -29 119 -38 81 -56 81 -113 -4 -54 -79
-80 -148 -77 -199 l3 -38 -18 29 c-9 16 -31 41 -48 55 -48 41 -145 67 -170 46
-17 -14 -32 5 -32 42 0 30 -9 44 -32 53 -13 4 -31 -8 -65 -45 -26 -28 -55 -58
-65 -67 -30 -30 -68 -113 -68 -151 0 -44 24 -117 47 -142 15 -17 15 -19 -2
-38 -18 -20 -18 -19 -34 28 -17 48 -77 131 -114 157 -20 14 -19 16 18 72 62
93 170 193 260 237 l78 40 16 -25 c21 -32 79 -90 113 -112 31 -20 88 -23 106
-5 18 18 14 69 -7 101 -22 34 -73 67 -104 67 -18 1 -19 2 -6 10 24 14 105 31
186 39 69 7 72 6 86 -19 46 -76 142 -137 228 -144 95 -8 269 36 322 82 58 51
-41 184 -168 223 -86 27 -220 14 -284 -28 l-25 -16 23 29 c68 86 94 276 51
372 -12 27 -46 29 -60 2 -6 -11 -43 -44 -84 -74 -40 -30 -97 -81 -126 -114
l-53 -60 -31 19 c-17 10 -39 19 -49 19 -13 0 -3 13 31 39 93 74 124 182 96
326 -8 39 -16 88 -19 110 -11 75 -15 85 -41 91 -22 6 -34 -3 -91 -62 -141
-149 -202 -252 -206 -350 l-2 -54 -38 45 c-21 25 -70 64 -109 87 l-71 42 -17
-21 c-12 -15 -16 -39 -16 -90 l1 -70 -39 44 c-44 50 -103 84 -153 86 -30 2
-33 5 -31 27 2 17 8 24 18 21 130 -34 243 56 304 243 38 116 21 136 -95 112
-89 -19 -145 -51 -205 -120 l-48 -54 -37 57 c-45 68 -162 191 -183 191 -33 0
-42 -35 -40 -158 2 -66 5 -134 7 -151 5 -27 3 -30 -12 -21 -12 6 -27 3 -48
-10 l-30 -18 17 46 c33 93 0 181 -109 289 -64 63 -94 76 -119 51z m367 -507
c16 -21 45 -46 65 -56 19 -10 37 -28 40 -39 7 -28 50 -72 88 -92 24 -12 62
-17 153 -17 l121 -1 26 -37 c31 -44 105 -97 146 -105 25 -5 29 -10 27 -33 -2
-14 -6 -50 -10 -80 -7 -58 -27 -107 -47 -113 -9 -3 -16 18 -24 74 -20 133 -78
227 -164 264 -26 12 -63 4 -75 -16 -13 -20 -20 -82 -19 -160 0 -87 22 -143 84
-212 l38 -44 -23 -26 -23 -27 -13 32 c-17 44 -73 130 -98 154 -17 16 -22 35
-26 96 -6 95 -36 161 -97 210 -79 63 -118 73 -136 33 -11 -25 -10 -141 2 -168
7 -14 -5 -12 -67 13 l-74 30 39 77 c36 68 39 82 35 132 -13 149 -14 194 -6
171 5 -13 22 -40 38 -60z m-318 5 c32 -13 38 -13 57 0 12 8 22 14 22 12 0 -2
-11 -37 -24 -78 l-23 -75 -32 68 c-30 62 -60 95 -74 81 -3 -3 -3 4 0 15 5 20
7 20 22 7 9 -8 33 -22 52 -30z m-47 -200 c14 -32 40 -74 57 -93 l31 -36 -29
-19 c-15 -10 -40 -25 -54 -33 l-25 -14 -1 48 c-1 26 -12 78 -25 116 -31 91
-50 95 -109 22 -24 -28 -54 -63 -68 -77 -44 -46 -64 -106 -58 -177 6 -55 4
-64 -13 -73 -21 -11 -20 -14 -25 65 -2 42 36 147 89 238 24 43 49 91 56 107 6
15 24 33 39 40 15 6 38 21 52 34 l24 23 16 -56 c9 -31 28 -82 43 -115z m-1041
-37 c21 0 46 5 56 10 14 8 25 3 52 -25 l34 -35 -29 11 c-71 26 -200 3 -180
-33 4 -7 4 -9 -1 -5 -4 4 -15 30 -24 56 l-17 49 35 -15 c20 -8 53 -14 74 -13z
m1237 -3 c0 -2 -8 -10 -17 -17 -16 -13 -17 -12 -4 4 13 16 21 21 21 13z
m-1240 -161 c34 -25 69 -35 131 -38 29 -2 34 -6 37 -29 4 -31 10 -31 -114 1
-45 11 -90 22 -100 24 -23 3 -24 5 -24 70 l0 52 18 -28 c10 -15 34 -39 52 -52z
m2170 26 c0 -24 56 -44 126 -45 93 -2 131 -29 58 -42 -69 -12 -173 -43 -188
-56 -21 -17 -36 -8 -30 20 5 26 11 79 13 115 1 17 21 25 21 8z m-900 -41 l45
-18 -30 -7 c-59 -13 -106 -39 -135 -74 -16 -20 -39 -46 -51 -58 -18 -18 -20
-30 -15 -62 3 -22 8 -45 11 -53 4 -10 -11 -13 -74 -11 -56 2 -103 -4 -167 -22
-49 -13 -90 -22 -91 -21 -7 7 75 91 135 138 37 29 69 55 72 58 11 11 99 70
105 70 3 0 11 5 18 11 17 15 110 67 122 67 6 1 30 -7 55 -18z m348 -241 c47
-93 47 -179 -2 -321 -45 -131 -50 -209 -22 -333 17 -72 18 -85 8 -85 -10 0
-23 -33 -37 -95 l-7 -30 -13 31 c-7 17 -15 76 -19 132 -3 56 -10 112 -15 124
-5 13 -9 25 -9 28 -1 12 -23 67 -36 90 -11 19 -13 46 -9 100 6 94 -18 166 -85
248 -55 67 -81 92 -147 134 -42 28 -47 33 -28 36 13 2 37 -8 55 -22 52 -39
103 -46 181 -26 36 10 81 27 99 38 18 12 38 20 43 19 6 -2 25 -32 43 -68z
m-1200 -223 c48 -69 58 -90 67 -137 5 -24 -2 -32 -71 -86 -22 -17 -49 -48 -59
-67 -11 -20 -23 -36 -26 -36 -9 0 -23 32 -20 45 2 6 3 34 2 64 0 73 -31 132
-109 208 -36 35 -60 63 -54 63 16 0 79 65 98 101 l17 34 53 -59 c29 -32 75
-90 102 -130z m-1217 37 c13 -16 12 -17 -3 -4 -10 7 -18 15 -18 17 0 8 8 3 21
-13z m-643 -165 c-29 -92 -34 -192 -14 -260 18 -63 80 -152 125 -180 l30 -19
-40 -36 c-21 -19 -53 -57 -70 -84 l-32 -48 -38 57 c-71 104 -77 139 -50 312
16 102 7 202 -22 261 l-26 52 42 47 41 46 37 -42 37 -43 -20 -63z m4219 78
c35 -36 78 -56 123 -56 l45 0 -31 -22 c-17 -12 -42 -37 -54 -56 -19 -27 -25
-30 -32 -18 -12 21 -99 46 -140 40 -68 -10 -147 -53 -222 -123 -38 -35 -38
-35 -20 -6 54 88 146 191 249 279 l30 25 17 -22 c10 -12 26 -30 35 -41z
m-1627 -2 c12 -31 38 -79 57 -107 18 -27 36 -54 38 -58 3 -4 -17 4 -45 17 -27
13 -57 24 -65 24 -24 0 -32 -31 -31 -109 1 -69 0 -74 -23 -82 -13 -5 -26 -7
-29 -5 -5 5 -83 -34 -119 -60 -21 -15 -22 -15 -18 5 8 43 37 87 75 113 68 47
95 131 76 234 -7 38 -5 43 21 62 15 12 31 22 34 22 3 0 16 -25 29 -56z m-1715
1 c46 -1 99 3 124 11 l44 13 61 -63 c34 -34 76 -91 95 -127 l35 -64 -39 34
c-49 43 -103 67 -194 86 -90 19 -106 19 -125 0 -19 -20 -9 -53 42 -142 44 -75
116 -149 162 -164 l28 -10 -26 -52 c-23 -45 -26 -64 -26 -149 l0 -96 -28 31
c-15 18 -68 100 -117 182 l-90 151 10 44 c14 60 4 149 -22 206 -12 25 -44 70
-71 99 l-48 53 52 -20 c34 -13 82 -21 133 -23z m2846 -93 c18 -18 51 -38 74
-44 22 -6 42 -13 43 -14 2 -1 -6 -16 -19 -33 -21 -29 -22 -29 -38 -10 -15 19
-18 19 -59 5 -24 -9 -74 -21 -110 -27 -37 -6 -81 -17 -99 -24 l-32 -13 30 46
c17 26 28 54 26 63 -3 9 10 30 28 48 37 36 65 88 65 123 1 17 8 9 30 -32 15
-31 43 -70 61 -88z m-3949 55 l22 -32 -35 30 c-20 17 -34 33 -32 38 6 11 19 1
45 -36z m785 31 c2 -75 29 -181 55 -215 5 -7 -16 -3 -52 8 -34 10 -77 19 -95
19 l-34 0 3 67 c4 64 5 68 32 76 16 5 43 20 59 33 17 13 30 23 31 24 0 0 1 -6
1 -12z m3374 -18 c6 0 5 -8 -1 -20 -12 -22 -27 -27 -27 -7 0 6 -3 23 -8 37 -7
23 -7 23 9 7 10 -9 22 -17 27 -17z m-1672 -31 c3 1 5 -27 6 -61 1 -35 10 -81
20 -103 10 -22 18 -42 17 -45 -1 -3 -10 -30 -21 -60 -10 -30 -22 -95 -26 -145
-9 -142 -19 -182 -61 -266 -28 -57 -68 -97 -147 -151 l-60 -41 7 34 c3 18 38
98 77 178 82 168 96 203 113 291 19 102 13 211 -19 330 -22 81 -22 81 38 58
28 -11 54 -19 56 -19z m-1888 -23 c2 -17 1 -27 -6 -77 -6 -44 -8 -47 -45 -57
-45 -11 -50 -8 -50 26 0 14 -11 44 -25 68 -14 23 -20 44 -15 46 27 8 140 4
141 -6z m4456 -59 c4 -8 29 -22 56 -32 26 -10 47 -22 47 -27 0 -5 -13 -28 -29
-51 -31 -46 -81 -165 -81 -194 -1 -17 -1 -17 -11 1 -19 31 -35 117 -38 202 -2
65 1 84 14 98 20 20 31 20 42 3z m351 -108 c11 -4 10 -13 -4 -49 -19 -45 -22
-104 -14 -265 3 -64 0 -76 -35 -148 -21 -43 -41 -79 -44 -82 -4 -2 -28 21 -54
51 l-48 54 35 36 c64 65 81 115 81 229 -1 84 -5 110 -27 163 -14 34 -23 62
-19 63 21 2 43 8 47 12 3 2 19 -10 37 -28 18 -17 38 -34 45 -36z m-1950 -46
c17 -22 55 -51 86 -66 45 -22 54 -31 51 -49 -2 -13 -6 -46 -9 -74 -4 -28 -17
-82 -30 -120 l-23 -69 -28 45 c-49 77 -106 208 -115 263 -7 47 -6 88 5 142 2
11 4 25 5 30 0 6 7 -7 14 -27 7 -20 27 -54 44 -75z m-403 56 c12 -19 -5 -23
-22 -6 -16 16 -16 17 -1 17 9 0 20 -5 23 -11z m-3047 -60 c32 -6 50 -15 46
-21 -4 -6 -8 -18 -9 -27 -6 -65 -18 -131 -24 -131 -3 0 -17 23 -29 50 -13 28
-45 79 -71 114 l-49 64 43 -19 c23 -10 65 -24 93 -30z m4486 19 c-3 -18 -7
-43 -9 -55 -6 -27 19 -53 52 -53 63 0 196 54 236 96 27 29 33 29 88 5 24 -11
46 -18 51 -15 4 2 12 -5 18 -16 6 -11 9 -20 6 -20 -2 0 2 -22 9 -49 l13 -50
-41 40 c-61 59 -156 79 -177 38 -9 -16 -8 -25 4 -42 48 -69 87 -96 175 -126
l81 -27 62 -100 c83 -135 176 -329 183 -384 l6 -45 -20 47 c-57 133 -133 205
-269 254 -96 35 -135 39 -157 14 -18 -20 -18 -23 -2 -67 10 -25 15 -49 12 -51
-3 -3 -24 -7 -47 -8 -65 -4 -124 -32 -165 -78 -21 -23 -53 -48 -72 -54 -44
-15 -43 -16 -36 10 12 35 7 95 -9 125 -19 37 -73 92 -89 89 -30 -4 -35 -21
-42 -121 -7 -94 -5 -108 13 -139 l20 -34 -46 -33 c-35 -25 -44 -28 -37 -13 20
44 17 147 -8 232 l-24 83 36 19 c21 10 60 42 89 71 l52 52 20 -25 c25 -33 83
-60 126 -60 18 0 75 19 126 43 75 35 105 43 153 44 33 0 66 4 73 8 24 16 12
47 -29 74 -133 89 -190 114 -261 115 l-49 0 22 19 c12 10 26 19 31 19 4 0 17
9 29 21 31 31 11 49 -42 38 -86 -20 -132 -57 -225 -184 -63 -87 -114 -139
-155 -161 -26 -13 -27 -12 -45 28 -10 22 -24 47 -32 54 -28 29 -63 10 -68 -37
-8 -69 -24 -98 -57 -107 -18 -5 -35 -8 -38 -6 -3 2 2 34 12 71 10 39 16 98 15
139 l-2 70 41 3 c189 10 314 85 376 225 11 25 22 46 24 46 2 0 1 -15 -1 -32z
m-2847 -118 c57 -83 146 -142 212 -142 39 -1 85 7 100 16 5 3 8 -19 7 -51 -3
-65 13 -140 39 -195 18 -36 18 -36 -20 -145 -58 -170 -82 -257 -85 -315 -1
-25 -69 33 -125 107 -23 29 -25 38 -15 50 7 8 20 30 29 47 9 18 42 52 74 76
101 77 117 125 82 246 -34 118 -70 140 -117 72 -13 -17 -50 -59 -84 -92 -54
-54 -93 -120 -86 -146 1 -5 -2 -8 -8 -8 -5 0 -10 17 -11 38 -5 183 -12 288
-24 350 -2 11 -6 36 -9 56 -3 20 -10 54 -15 77 -9 39 -8 40 8 22 9 -10 31 -38
48 -63z m-669 -10 c17 -33 30 -60 29 -60 -2 0 -29 9 -61 21 -33 11 -81 21
-107 21 -27 1 -49 3 -49 4 0 1 24 10 53 18 29 8 62 24 72 35 11 11 23 20 26
20 4 1 21 -26 37 -59z m2992 20 c-5 -17 -7 -79 -4 -138 2 -59 -1 -134 -7 -167
-12 -60 -59 -177 -75 -188 -5 -3 -9 45 -9 106 0 121 -16 175 -66 229 -33 35
-89 68 -116 68 -13 0 -23 6 -23 13 0 11 20 14 83 13 72 0 88 3 133 27 28 16
57 37 64 48 21 28 30 23 20 -11z m-1151 -104 c-31 -15 -36 -145 -7 -199 14
-27 4 -31 -34 -11 -18 9 -65 19 -104 22 -116 7 -126 -20 -59 -163 40 -86 97
-146 170 -176 l55 -23 -27 -29 c-16 -16 -66 -55 -113 -87 -47 -32 -98 -72
-114 -89 -27 -28 -30 -29 -42 -13 -16 24 -6 72 15 72 22 0 98 48 134 85 35 36
32 63 -11 88 -40 24 -152 28 -177 7 -15 -12 -21 -9 -51 23 -20 20 -44 37 -55
37 -10 0 -19 2 -19 4 0 3 24 29 53 58 54 55 102 139 113 196 6 28 10 32 38 32
69 0 136 69 161 165 8 33 23 66 32 72 14 11 20 8 38 -25 20 -35 20 -38 4 -46z
m-2154 52 l60 2 -43 -20 c-47 -21 -65 -53 -50 -85 35 -69 195 -149 299 -148
27 0 29 -11 15 -82 -3 -11 -5 -41 -5 -66 l-1 -47 -42 43 c-86 85 -282 197
-369 210 -61 9 -81 -14 -68 -78 26 -131 31 -117 -50 -137 -43 -11 -71 -33
-103 -80 -15 -23 -15 -18 2 47 20 82 47 132 166 314 46 71 84 134 84 139 0 7
8 6 23 -2 12 -6 49 -11 82 -10z m860 -60 c4 -35 9 -72 11 -83 2 -11 6 -75 9
-142 3 -68 6 -128 7 -135 2 -8 -6 -12 -22 -10 -29 4 -130 50 -130 60 0 4 9 30
20 59 36 96 43 169 23 248 -7 28 -13 51 -13 52 0 3 33 8 61 11 26 2 27 -1 34
-60z m614 15 c-6 -21 -24 -78 -41 -127 -28 -78 -33 -86 -39 -64 -4 15 -6 51
-4 80 1 29 3 63 4 76 0 12 7 22 15 22 8 0 28 11 43 25 15 13 29 25 30 25 1 0
-3 -17 -8 -37z m902 -87 l57 -1 6 -53 c6 -50 5 -54 -24 -79 -17 -14 -38 -39
-47 -56 l-15 -31 -15 35 c-9 19 -17 52 -20 74 -5 38 -49 109 -80 128 -7 4 -13
12 -13 17 0 5 21 -1 48 -12 28 -13 70 -22 103 -22z m2527 9 c1 -1 -6 -34 -17
-73 -33 -121 -21 -203 43 -276 28 -33 31 -28 -47 -75 l-37 -23 8 24 c20 56 -4
168 -35 168 -30 0 -41 -13 -69 -75 -28 -64 -34 -138 -14 -175 6 -12 10 -23 8
-24 -2 -1 -10 -7 -18 -13 -13 -10 -15 -4 -18 34 -1 24 -6 61 -11 82 -7 31 -4
42 12 62 36 44 98 181 104 227 3 25 6 70 7 99 l1 52 40 -6 c22 -3 41 -7 43 -8z
m-1904 -242 c28 -41 140 -133 162 -133 23 0 16 -14 -28 -57 -53 -51 -117 -95
-129 -87 -5 3 -9 14 -9 25 0 35 -75 294 -91 314 -4 6 2 26 13 44 l22 34 17
-51 c10 -28 29 -68 43 -89z m-286 64 c-3 -16 -5 -16 -21 -5 -16 12 -17 18 -7
43 l12 30 9 -25 c6 -13 9 -32 7 -43z m-2035 -146 l38 -23 -25 -27 c-37 -38
-77 -138 -80 -196 -1 -27 6 -77 16 -110 23 -77 23 -77 -9 -31 -14 22 -50 62
-80 89 -29 28 -53 53 -53 57 0 5 16 31 35 60 49 73 66 138 55 220 l-6 49 35
-32 c20 -18 53 -43 74 -56z m2003 -34 l69 -53 -3 -58 c-1 -32 -12 -80 -24
-108 l-22 -51 -16 61 c-20 74 -49 118 -100 155 l-39 27 26 40 c15 22 30 40 34
40 4 0 38 -24 75 -53z m685 -56 c-29 -115 -12 -249 42 -328 20 -30 51 -50 70
-45 8 2 8 1 -32 -148 -16 -58 -31 -98 -34 -90 -3 8 -17 50 -31 93 -41 123 -88
186 -193 256 -67 45 -84 49 -106 26 -22 -22 -26 -194 -6 -267 5 -22 9 -41 7
-42 -92 -43 -148 -79 -184 -120 l-44 -48 -1 28 c-1 16 -2 67 -3 114 l-1 85 37
35 c47 45 105 140 113 188 5 32 16 43 73 82 37 24 98 76 136 115 61 62 167
148 173 141 2 -2 -5 -35 -16 -75z m-976 3 c11 -1 32 -3 47 -3 26 -1 27 -2 26
-69 0 -37 2 -76 5 -87 3 -11 8 -30 12 -42 6 -22 6 -22 -32 -7 -47 20 -136 23
-157 5 -27 -23 -19 -56 23 -94 22 -19 49 -40 60 -47 27 -14 27 -28 -1 -40 -13
-5 -33 -17 -45 -26 -22 -15 -23 -15 -24 2 -1 32 -6 49 -28 94 -11 24 -21 49
-21 56 0 6 -7 17 -15 24 -21 18 -56 1 -75 -36 -8 -16 -25 -45 -38 -65 -36 -56
-39 -124 -8 -183 19 -39 23 -54 14 -69 -9 -18 -11 -18 -29 9 -10 16 -38 47
-62 69 -50 47 -97 103 -97 116 0 16 83 91 150 134 95 62 188 165 219 243 11
27 17 31 35 26 11 -4 30 -8 41 -10z m-750 -36 c-3 -31 13 -73 47 -130 l27 -48
-37 24 c-48 30 -108 49 -133 43 -10 -3 -19 -2 -19 2 0 13 61 95 84 113 28 23
33 22 31 -4z m-1647 -26 c67 -45 162 -88 215 -97 l38 -7 -19 -22 c-48 -52 -52
-105 -11 -127 28 -15 96 -15 141 0 20 7 52 29 72 51 l34 38 41 -40 c98 -95
182 -271 194 -408 l6 -55 -25 74 c-14 41 -34 88 -46 105 -43 62 -129 154 -148
159 -22 6 -42 -14 -46 -46 -1 -12 -6 -44 -10 -72 -16 -112 -3 -250 32 -316 26
-52 0 -30 -51 43 -82 116 -115 154 -174 199 -32 26 -33 28 -35 110 -2 67 -7
92 -26 124 -30 52 -110 130 -186 182 -55 37 -64 40 -85 29 -23 -11 -24 -16
-21 -91 3 -106 32 -199 77 -252 32 -38 34 -43 18 -52 -17 -10 -17 -12 1 -26
11 -8 34 -15 51 -15 48 0 127 -27 160 -55 l30 -25 -33 16 c-69 33 -219 15
-240 -28 l-11 -23 -2 23 c-1 12 -2 25 -4 30 -1 4 -5 25 -10 47 -15 73 -51 141
-91 171 -65 48 -144 134 -169 183 l-23 47 56 17 c32 9 82 23 113 32 42 11 65
25 88 50 17 20 31 42 31 50 0 21 4 20 68 -23z m1081 -179 c46 -54 83 -86 118
-103 39 -19 53 -32 57 -53 17 -83 98 -194 198 -271 33 -24 36 -31 27 -49 -15
-26 -5 -165 16 -231 14 -45 14 -50 -3 -62 -9 -7 -20 -14 -24 -14 -3 0 -17 -17
-29 -37 l-23 -36 -11 33 c-9 27 -8 39 8 72 33 66 25 191 -16 282 -26 56 -134
179 -177 201 -21 11 -26 20 -24 44 3 42 -16 99 -34 106 -9 3 -27 -3 -41 -13
-15 -10 -48 -26 -76 -36 -86 -28 -128 -58 -161 -113 -33 -55 -74 -172 -74
-213 -1 -39 -17 -4 -24 54 -8 60 -52 193 -82 246 -1 3 12 4 30 2 27 -3 40 3
73 35 85 81 143 191 143 272 l0 54 31 -46 c17 -25 61 -81 98 -124z m2910 66
c54 -2 83 3 141 27 33 13 63 24 68 24 4 0 26 -27 47 -60 22 -34 53 -70 70 -80
30 -20 30 -20 5 -21 -76 -2 -176 -48 -241 -110 -66 -62 -83 -92 -69 -119 10
-18 7 -24 -17 -43 -15 -12 -56 -51 -91 -87 -57 -59 -61 -62 -51 -32 12 35 7
114 -11 177 -6 22 -18 69 -25 104 -14 67 -27 84 -60 75 -45 -14 -133 -121
-162 -199 -33 -86 -27 -207 14 -288 8 -16 13 -31 11 -33 -9 -8 -118 -13 -118
-4 0 5 4 20 9 33 12 31 18 78 26 192 4 49 8 92 10 96 2 3 7 21 10 39 10 59 67
153 131 218 65 65 84 75 84 43 0 -20 60 -106 89 -128 9 -6 33 -21 53 -33 37
-21 37 -21 56 -2 14 14 18 30 16 52 -5 45 -53 128 -91 158 -28 23 -30 27 -16
38 13 9 23 6 51 -12 19 -13 47 -24 61 -25z m531 -134 c0 -3 -25 -31 -55 -62
l-54 -58 26 55 c14 30 30 57 34 60 10 7 49 10 49 5z m-2710 -110 c0 -9 -23
-65 -27 -65 -7 0 -83 54 -83 60 0 3 25 5 55 6 30 0 55 0 55 -1z m2524 -92
c-26 -32 -58 -83 -71 -113 -14 -30 -26 -57 -29 -59 -2 -2 -22 4 -46 14 -45 18
-126 23 -168 11 -23 -7 -22 -4 11 26 33 32 95 68 116 68 4 0 25 5 46 11 30 8
38 15 34 29 -4 15 3 19 42 24 25 3 60 15 76 25 17 11 31 20 33 20 2 1 -18 -25
-44 -56z m-4655 -85 c41 -77 46 -100 11 -55 -29 37 -95 78 -113 71 -42 -16
-64 -243 -33 -333 25 -74 87 -143 131 -146 20 -2 44 16 59 45 9 16 23 44 32
61 9 18 17 54 18 80 1 27 3 49 6 49 3 0 23 -30 43 -67 21 -38 49 -85 63 -106
l25 -39 -23 7 c-41 14 -135 7 -162 -11 -36 -23 -32 -47 12 -93 20 -21 52 -55
71 -75 18 -20 51 -46 71 -56 49 -25 135 -35 183 -22 36 10 41 8 82 -23 63 -47
143 -72 240 -75 l50 -1 -37 -19 c-48 -26 -144 -49 -235 -56 l-72 -7 -11 29
c-24 63 -82 106 -178 132 -62 17 -74 17 -92 5 -19 -13 -19 -16 -4 -46 9 -18
28 -47 42 -66 22 -30 23 -34 6 -27 -25 10 -153 50 -226 71 -56 16 -57 17 -44
38 21 33 37 103 37 162 0 68 -30 129 -116 232 -95 114 -115 115 -156 8 -39
-103 -30 -211 25 -311 l23 -42 -26 7 c-17 5 -30 18 -36 37 -5 16 -28 76 -51
134 -36 90 -40 107 -28 120 22 25 44 87 44 123 0 31 -16 93 -35 141 -7 16 -6
17 10 9 13 -8 32 -6 70 7 122 42 200 104 237 188 20 43 20 44 32 21 7 -13 31
-59 55 -101z m2364 -50 c31 -42 30 -38 16 -75 l-10 -28 -31 50 c-16 28 -57 76
-89 107 -53 51 -58 59 -50 82 10 25 10 24 73 -37 35 -35 75 -79 91 -99z m-867
47 c-12 -32 -21 -113 -21 -195 0 -75 3 -91 28 -132 15 -26 27 -48 27 -50 0 -3
-25 -5 -55 -5 -140 -1 -159 -57 -55 -161 69 -68 148 -107 220 -107 30 0 64 3
75 7 16 5 29 -6 68 -59 54 -74 60 -73 -99 -12 -55 22 -126 55 -158 74 -32 19
-60 35 -63 35 -10 0 -150 111 -190 150 -44 43 -113 141 -113 159 0 6 7 11 14
11 8 0 28 12 43 26 15 15 52 40 80 56 78 44 147 110 174 167 22 47 39 70 25
36z m1459 -52 c31 -65 95 -132 132 -137 10 -2 18 -10 17 -19 -3 -71 -3 -70
-23 -56 -133 99 -217 139 -296 139 -29 0 -29 0 -10 20 19 18 142 89 156 90 4
0 15 -17 24 -37z m551 -22 c28 -28 131 -74 165 -74 l38 0 -16 -41 c-63 -160
-239 -297 -455 -355 -40 -10 -112 -31 -161 -45 -48 -14 -92 -26 -99 -26 -6 0
24 34 67 76 55 53 82 73 94 69 24 -10 114 -23 131 -20 108 22 174 67 207 143
26 62 -9 97 -67 67 l-31 -16 19 38 c11 21 23 49 27 61 14 47 55 132 63 132 4
0 12 -4 18 -9z m-3025 -214 c71 -35 141 -44 196 -24 l42 14 50 -47 c53 -50
168 -116 217 -124 16 -3 47 -8 69 -11 29 -4 47 -15 65 -37 45 -57 92 -101 144
-136 l51 -35 -70 7 c-420 37 -651 132 -835 342 -48 55 -130 186 -130 209 0 6
33 -21 73 -60 41 -41 96 -83 128 -98z m573 53 c9 -47 20 -96 23 -109 6 -23 4
-24 -41 -19 -26 3 -49 8 -51 10 -3 2 5 24 17 48 16 31 23 63 23 107 0 34 3 59
6 55 4 -4 14 -45 23 -92z m1669 31 c-13 -49 47 -145 111 -178 44 -23 115 -39
159 -37 38 2 38 2 20 -20 -10 -11 -43 -46 -73 -76 -31 -30 -67 -74 -80 -97
-14 -27 -34 -46 -54 -53 -86 -32 -133 -59 -173 -98 l-43 -44 -1 44 c-7 214 25
384 98 534 25 51 47 66 36 25z m1483 -47 c34 -51 123 -79 199 -61 29 7 29 6
-15 -34 -63 -58 -149 -115 -212 -140 -157 -63 -312 -88 -507 -80 l-34 1 30 29
c16 15 47 56 67 90 37 60 38 61 81 61 84 0 278 82 330 140 24 27 41 25 61 -6z
m-2027 -286 c21 -65 47 -183 55 -253 24 -200 25 -227 7 -220 -37 14 -123 96
-174 166 -62 84 -121 146 -187 199 -24 19 -55 45 -69 58 l-26 23 70 -7 c39 -4
101 -8 139 -8 l69 -1 46 52 c25 29 47 53 48 53 1 0 11 -28 22 -62z m3150 0
c13 -34 53 -73 95 -93 20 -10 35 -19 34 -20 -2 -1 -39 -5 -84 -9 -44 -3 -107
-15 -139 -26 -32 -11 -60 -18 -63 -16 -9 10 54 110 92 147 47 45 53 47 65 17z
m-569 -8 c9 -17 7 -24 -12 -40 -34 -29 -38 -24 -20 20 9 22 18 40 19 40 1 0 7
-9 13 -20z m-260 -312 c24 -21 49 -38 56 -38 8 0 14 -4 14 -10 0 -9 -17 -11
-135 -14 -53 -1 -152 17 -166 31 -10 10 74 79 133 110 l43 22 7 -32 c4 -20 23
-47 48 -69z m-2265 -893 c19 -24 24 -39 18 -48 -11 -13 -63 -164 -82 -234
l-12 -42 -148 99 c-163 109 -241 188 -241 244 0 13 5 14 43 0 80 -28 183 -16
245 29 39 29 72 70 72 89 0 36 16 23 46 -37 18 -35 45 -80 59 -100z m-245
-1704 c-25 -48 -217 -189 -358 -263 l-97 -51 60 62 c79 82 193 165 308 223 50
26 93 48 95 48 1 0 -2 -9 -8 -19z m263 -645 c14 -30 44 -75 66 -99 l41 -44
-27 -12 c-34 -13 -269 -78 -303 -82 -32 -5 -51 33 -58 117 -4 51 -1 71 18 109
30 63 104 135 170 168 l55 28 7 -65 c3 -36 18 -90 31 -120z m664 122 c26 -39
28 -48 28 -147 0 -75 -7 -135 -24 -206 -25 -111 -39 -152 -40 -122 -1 23 -54
140 -82 178 l-22 31 20 42 c11 22 35 92 54 154 18 61 35 112 36 112 2 0 15
-19 30 -42z m-622 -590 c-4 -29 -9 -60 -11 -68 -1 -8 -3 -26 -4 -40 -1 -23 -6
-19 -60 39 -33 35 -60 67 -60 71 0 4 24 12 53 19 28 6 59 16 67 21 22 14 22
14 15 -42z m723 -587 c42 -42 101 -92 129 -110 65 -42 68 -57 57 -224 -9 -149
-8 -246 5 -291 9 -35 9 -35 -17 -25 -63 24 -158 85 -207 133 -137 134 -197
299 -191 531 2 69 7 90 37 150 l34 70 38 -79 c29 -62 54 -96 115 -155z"/>
<path d="M1405 6371 c-128 -46 -221 -119 -289 -226 -58 -89 -72 -148 -46 -181
16 -18 49 -14 130 14 30 11 87 27 125 36 141 34 258 111 324 215 49 76 40 100
-49 140 -56 26 -129 26 -195 2z"/>
</g>
</svg>
